<?xml version="1.0" standalone="no"?>
<!DOCTYPE svg PUBLIC "-//W3C//DTD SVG 20010904//EN"
 "http://www.w3.org/TR/2001/REC-SVG-20010904/DTD/svg10.dtd">
<svg version="1.0" xmlns="http://www.w3.org/2000/svg"
 width="512.000000pt" height="512.000000pt" viewBox="0 0 512.000000 512.000000"
 preserveAspectRatio="xMidYMid meet">

<g transform="translate(0.000000,512.000000) scale(0.100000,-0.100000)"
fill="#000000" stroke="none">
<path d="M2315 5109 c-800 -83 -1501 -518 -1927 -1196 -604 -961 -490 -2237
274 -3068 425 -462 951 -737 1583 -827 119 -17 512 -16 635 1 622 86 1148 360
1572 820 349 378 572 862 650 1406 17 118 17 512 0 630 -59 416 -191 769 -410
1099 -92 140 -185 254 -315 385 -399 404 -893 653 -1462 737 -123 18 -478 26
-600 13z m638 -669 c673 -131 1118 -676 1082 -1325 -8 -156 -29 -293 -65 -430
-107 -407 -340 -718 -654 -870 -148 -72 -261 -98 -441 -99 -144 -1 -153 0
-238 30 -117 42 -187 86 -259 163 -32 34 -60 61 -62 60 -1 -2 -35 -134 -76
-294 -87 -344 -113 -422 -192 -579 -94 -183 -272 -446 -304 -446 -8 0 -18 10
-23 23 -32 83 -47 544 -23 697 6 41 78 357 159 701 l147 627 -22 64 c-35 108
-45 191 -39 327 7 171 40 269 127 379 52 66 127 116 208 138 54 15 74 16 128
7 229 -39 298 -245 201 -593 -20 -69 -58 -199 -85 -290 -85 -280 -89 -341 -32
-457 53 -107 156 -171 289 -180 169 -12 318 62 448 223 114 141 199 346 245
591 18 95 22 155 22 313 1 173 -2 204 -21 272 -87 298 -273 480 -580 566 -93
25 -109 27 -303 27 -189 -1 -212 -3 -302 -27 -182 -50 -329 -131 -460 -256
-190 -181 -301 -429 -315 -702 -9 -194 28 -330 129 -469 30 -41 48 -76 48 -94
0 -46 -51 -237 -70 -260 -42 -52 -176 6 -295 128 -137 140 -208 309 -236 562
-50 468 191 957 611 1235 207 137 462 226 741 257 131 15 386 6 512 -19z"/>
</g>
</svg>
